<svg width="20" height="18" viewBox="0 0 20 18" fill="none" xmlns="http://www.w3.org/2000/svg">
<path d="M9.47915 17.4801C9.0833 17.4802 8.70301 17.326 8.41915 17.0501L1.41915 10.0501C0.834242 9.46444 0.834242 8.51571 1.41915 7.93007L8.41915 0.930072C8.79964 0.55137 9.35326 0.404423 9.87147 0.544585C10.3897 0.684746 10.7937 1.09072 10.9315 1.60958C11.0692 2.12845 10.9196 2.68137 10.5391 3.06007L6.1067 7.5H17.519C18.3475 7.5 19.019 8.17157 19.019 9C19.019 9.82843 18.3475 10.5 17.519 10.5H6.11161L10.5391 14.9201C10.9676 15.349 11.0957 15.9938 10.8637 16.5539C10.6318 17.1141 10.0854 17.4795 9.47915 17.4801Z" fill="#4B5563"/>
</svg>
