<svg width="20" height="20" viewBox="0 0 20 20" fill="none" xmlns="http://www.w3.org/2000/svg">
<path d="M12.651 20H3.36097C2.35053 19.9639 1.40931 19.4774 0.795558 18.6739C0.181807 17.8704 -0.0400101 16.8343 0.190969 15.85L0.420969 14.71C0.697004 13.1668 2.02359 12.0327 3.59097 12H12.411C13.9807 12.0319 15.3106 13.1652 15.591 14.71L15.821 15.85C16.0481 16.8339 15.8248 17.8679 15.2118 18.6704C14.5989 19.4729 13.66 19.9604 12.651 20Z" fill="white"/>
<path d="M8.50097 10H7.50097C5.29183 10 3.50097 8.20914 3.50097 6V3.36C3.50097 1.50432 5.00529 -2.67101e-07 6.86097 -2.67101e-07H9.14097C10.0329 -0.00266678 10.8891 0.350476 11.5198 0.981177C12.1505 1.61188 12.5036 2.46806 12.501 3.36V6C12.501 8.20914 10.7101 10 8.50097 10Z" fill="white"/>
<path d="M19.001 4.25H17.631V2.88C17.631 2.46579 17.2952 2.13 16.881 2.13C16.4668 2.13 16.131 2.46579 16.131 2.88V4.25H14.771C14.3568 4.25 14.021 4.58579 14.021 5C14.021 5.41421 14.3568 5.75 14.771 5.75H16.131V7.12C16.131 7.53421 16.4668 7.87 16.881 7.87C17.2952 7.87 17.631 7.53421 17.631 7.12V5.75H19.001C19.4152 5.75 19.751 5.41421 19.751 5C19.751 4.58579 19.4152 4.25 19.001 4.25Z" fill="white"/>
</svg>
