<svg width="19" height="18" viewBox="0 0 19 18" fill="none" xmlns="http://www.w3.org/2000/svg">
<path d="M18.0805 7.94002L11.0805 0.940021C10.7 0.561319 10.1464 0.414372 9.62815 0.554534C9.10994 0.694695 8.70587 1.10067 8.56815 1.61953C8.43043 2.1384 8.57998 2.69132 8.96047 3.07002L13.3905 7.49002H1.98047C1.15204 7.49002 0.480469 8.16159 0.480469 8.99002C0.480469 9.81845 1.15204 10.49 1.98047 10.49H13.3905L8.96047 14.91C8.53203 15.339 8.40395 15.9837 8.63589 16.5439C8.86784 17.104 9.41419 17.4695 10.0205 17.47C10.423 17.464 10.8058 17.2943 11.0805 17L18.0805 10C18.6654 9.41438 18.6654 8.46566 18.0805 7.88002V7.94002Z" fill="white"/>
</svg>
