<svg width="6" height="6" viewBox="0 0 6 6" fill="none" xmlns="http://www.w3.org/2000/svg">
<path d="M5.85995 2.64666L3.52662 0.31333C3.39979 0.187096 3.21525 0.138114 3.04251 0.184834C2.86978 0.231555 2.73509 0.36688 2.68918 0.539834C2.64327 0.712789 2.69312 0.897096 2.81995 1.02333L4.29662 2.49666H0.493286C0.217144 2.49666 -0.00671387 2.72052 -0.00671387 2.99666C-0.00671387 3.27281 0.217144 3.49666 0.493286 3.49666H4.29662L2.81995 4.97C2.67714 5.11299 2.63445 5.32789 2.71176 5.51461C2.78908 5.70133 2.97119 5.82315 3.17329 5.82333C3.30747 5.82134 3.43505 5.76477 3.52662 5.66666L5.85995 3.33333C6.05492 3.13812 6.05492 2.82188 5.85995 2.62666V2.64666Z" fill="#67B5DC"/>
</svg>
