<svg width="10" height="10" viewBox="0 0 10 10" fill="none" xmlns="http://www.w3.org/2000/svg">
<path d="M8.86486 8.5467C8.58872 8.5467 8.36486 8.32284 8.36486 8.0467V1.96003H2.28486C2.00872 1.96003 1.78486 1.73617 1.78486 1.46003C1.78486 1.18389 2.00872 0.96003 2.28486 0.96003H8.87153C9.00328 0.957636 9.13051 1.00805 9.22486 1.10003C9.32031 1.19534 9.3732 1.32516 9.37153 1.46003V8.0467C9.37339 8.18103 9.32039 8.31032 9.22476 8.40469C9.12914 8.49905 8.99916 8.55034 8.86486 8.5467Z" fill="#4B5563"/>
<path d="M1.79153 9.04003C1.65978 9.04242 1.53255 8.99201 1.43819 8.90003C1.34251 8.80602 1.28861 8.6775 1.28861 8.54336C1.28861 8.40922 1.34251 8.28071 1.43819 8.1867L8.51819 1.1067C8.64284 0.972928 8.83056 0.917864 9.00772 0.963106C9.18488 1.00835 9.32321 1.14668 9.36845 1.32384C9.41369 1.50099 9.35863 1.68872 9.22486 1.81336L2.14486 8.90003C2.04933 8.99018 1.92288 9.04029 1.79153 9.04003Z" fill="#4B5563"/>
<path d="M8.86486 9.0467C8.31258 9.0467 7.86486 8.59898 7.86486 8.0467V2.46003H2.28486C1.73258 2.46003 1.28486 2.01231 1.28486 1.46003C1.28486 0.907745 1.73258 0.46003 2.28486 0.46003H8.87819C9.14506 0.454526 9.40262 0.558114 9.59137 0.746857C9.78011 0.9356 9.8837 1.19316 9.87819 1.46003V8.0467C9.87822 8.31424 9.77103 8.57063 9.5806 8.75856C9.39017 8.94648 9.13238 9.05026 8.86486 9.0467Z" fill="#4B5563"/>
<path d="M1.79153 9.54003C1.52707 9.54305 1.27248 9.43977 1.08486 9.25336C0.895548 9.0656 0.789062 8.81 0.789062 8.54336C0.789062 8.27673 0.895548 8.02113 1.08486 7.83336L8.16486 0.753363C8.41416 0.485826 8.7896 0.375698 9.14391 0.466182C9.49822 0.556667 9.77489 0.833333 9.86538 1.18764C9.95586 1.54196 9.84573 1.9174 9.57819 2.1667L2.49819 9.25336C2.30895 9.43729 2.05542 9.54014 1.79153 9.54003Z" fill="#4B5563"/>
</svg>
