<svg width="16" height="16" viewBox="0 0 16 16" fill="none" xmlns="http://www.w3.org/2000/svg">
<path d="M11.5333 11.5467C11.2572 11.5467 11.0333 11.3228 11.0333 11.0467V4.96H4.95332C4.67718 4.96 4.45332 4.73614 4.45332 4.46C4.45332 4.18386 4.67718 3.96 4.95332 3.96H11.54C11.6717 3.95761 11.799 4.00802 11.8933 4.1C11.9888 4.1953 12.0417 4.32513 12.04 4.46V11.0467C12.0418 11.181 11.9888 11.3103 11.8932 11.4047C11.7976 11.499 11.6676 11.5503 11.5333 11.5467Z" fill="url(#paint0_linear_1176_1739)"/>
<path d="M4.45998 12.04C4.32824 12.0424 4.20101 11.992 4.10665 11.9C4.01096 11.806 3.95706 11.6775 3.95706 11.5433C3.95706 11.4092 4.01096 11.2807 4.10665 11.1867L11.1867 4.10667C11.3113 3.9729 11.499 3.91783 11.6762 3.96308C11.8533 4.00832 11.9917 4.14665 12.0369 4.32381C12.0822 4.50096 12.0271 4.68869 11.8933 4.81333L4.81332 11.9C4.71779 11.9902 4.59134 12.0403 4.45998 12.04Z" fill="url(#paint1_linear_1176_1739)"/>
<path d="M11.5333 12.0467C10.981 12.0467 10.5333 11.599 10.5333 11.0467V5.46H4.95332C4.40103 5.46 3.95332 5.01228 3.95332 4.46C3.95332 3.90771 4.40103 3.46 4.95332 3.46H11.5467C11.8135 3.4545 12.0711 3.55808 12.2598 3.74683C12.4486 3.93557 12.5522 4.19313 12.5467 4.46V11.0467C12.5467 11.3142 12.4395 11.5706 12.2491 11.7585C12.0586 11.9465 11.8008 12.0502 11.5333 12.0467Z" fill="url(#paint2_linear_1176_1739)"/>
<path d="M4.45998 12.54C4.19553 12.543 3.94093 12.4397 3.75332 12.2533C3.56401 12.0656 3.45752 11.81 3.45752 11.5433C3.45752 11.2767 3.56401 11.0211 3.75332 10.8333L10.8333 3.75333C11.0826 3.4858 11.4581 3.37567 11.8124 3.46615C12.1667 3.55664 12.4433 3.8333 12.5338 4.18761C12.6243 4.54193 12.5142 4.91737 12.2467 5.16667L5.16665 12.2533C4.97741 12.4373 4.72388 12.5401 4.45998 12.54Z" fill="url(#paint3_linear_1176_1739)"/>
<defs>
<linearGradient id="paint0_linear_1176_1739" x1="3.45752" y1="3.43503" x2="12.5626" y2="12.5425" gradientUnits="userSpaceOnUse">
<stop stop-color="#67B5DC"/>
<stop offset="0.849953" stop-color="#0FCA9F"/>
</linearGradient>
<linearGradient id="paint1_linear_1176_1739" x1="3.45752" y1="3.43503" x2="12.5626" y2="12.5425" gradientUnits="userSpaceOnUse">
<stop stop-color="#67B5DC"/>
<stop offset="0.849953" stop-color="#0FCA9F"/>
</linearGradient>
<linearGradient id="paint2_linear_1176_1739" x1="3.45752" y1="3.43503" x2="12.5626" y2="12.5425" gradientUnits="userSpaceOnUse">
<stop stop-color="#67B5DC"/>
<stop offset="0.849953" stop-color="#0FCA9F"/>
</linearGradient>
<linearGradient id="paint3_linear_1176_1739" x1="3.45752" y1="3.43503" x2="12.5626" y2="12.5425" gradientUnits="userSpaceOnUse">
<stop stop-color="#67B5DC"/>
<stop offset="0.849953" stop-color="#0FCA9F"/>
</linearGradient>
</defs>
</svg>
