<svg width="19" height="20" viewBox="0 0 19 20" fill="none" xmlns="http://www.w3.org/2000/svg">
<path fill-rule="evenodd" clip-rule="evenodd" d="M17.9382 5.66961C16.512 2.24498 13.1704 0.0103206 9.46066 0.000412056C5.45562 -0.0236511 1.89312 2.54065 0.644655 6.3462C-0.603809 10.1518 0.747345 14.3281 3.98831 16.6811C7.22928 19.0342 11.6187 19.0259 14.8507 16.6604L17.7207 19.5304C18.0135 19.8229 18.4878 19.8229 18.7807 19.5304C19.0731 19.2376 19.0731 18.7632 18.7807 18.4704L15.9907 15.6804C18.5968 13.0403 19.3644 9.09425 17.9382 5.66961ZM7.13996 6.04203C6.89594 6.62586 6.32342 7.00446 5.69066 7.00041C4.83462 7.00041 4.14066 6.30645 4.14066 5.45041C4.13662 4.81765 4.51521 4.24513 5.09904 4.00111C5.68287 3.75709 6.35627 3.88992 6.80371 4.33736C7.25115 4.7848 7.38398 5.4582 7.13996 6.04203Z" fill="#0FC99F"/>
</svg>
