<svg width="42" height="38" viewBox="0 0 42 38" fill="none" xmlns="http://www.w3.org/2000/svg">
<path d="M9.17523 34.854H20.3348C21.1486 34.854 21.8083 35.5137 21.8083 36.3275C21.8083 37.1413 21.1486 37.8011 20.3348 37.8011H9.17523C4.11238 37.7903 0.0108276 33.6887 2.10654e-05 28.6259V9.2145C-0.00519525 6.77587 0.958547 4.43505 2.67923 2.707C4.39992 0.978942 6.7366 0.00520518 9.17523 0H16.759C19.6128 0 21.9262 2.31343 21.9262 5.16719C21.9369 6.38889 22.9246 7.37665 24.1463 7.38732H31.7301C36.793 7.39813 40.8945 11.4997 40.9053 16.5625C40.9166 17.394 40.2627 18.0827 39.4318 18.1147C39.0465 18.1307 38.6714 17.9888 38.3932 17.7218C38.115 17.4547 37.9579 17.0857 37.9583 16.7001C37.9845 15.0277 37.3412 13.4142 36.1715 12.2186C35.0018 11.0231 33.4027 10.3447 31.7301 10.3344H24.1463C21.2926 10.3344 18.9791 8.02096 18.9791 5.16719C18.9474 3.96087 17.9657 2.99653 16.759 2.98636H9.17523C5.73552 2.98636 2.94709 5.7748 2.94709 9.2145V28.6259C2.94709 32.0656 5.73552 34.854 9.17523 34.854Z" fill="#0FC99F"/>
<path d="M33.7931 25.2073L30.4727 28.6062L29.2939 27.4863C28.9341 27.0245 28.3352 26.8195 27.7679 26.9639C27.2006 27.1083 26.7726 27.5748 26.6775 28.1524C26.5824 28.73 26.8382 29.3092 27.3292 29.6279L29.5493 31.7498C29.8259 32.0108 30.1906 32.1581 30.571 32.1623C30.9708 32.1599 31.353 31.9971 31.6319 31.7105L35.9739 27.2702C36.5436 26.6843 36.5304 25.7475 35.9444 25.1778C35.3585 24.6081 34.4217 24.6213 33.852 25.2073H33.7931Z" fill="#0FC99F"/>
<path fill-rule="evenodd" clip-rule="evenodd" d="M27.6435 18.9202H35.5024C38.5763 18.931 41.0625 21.426 41.0625 24.5V32.3588C41.0625 33.8335 40.4767 35.2477 39.434 36.2904C38.3913 37.3332 36.977 37.919 35.5024 37.919H27.6435C24.5696 37.919 22.0746 35.4328 22.0637 32.3588V24.5C22.0637 21.4183 24.5619 18.9202 27.6435 18.9202ZM35.5024 34.6379C36.7611 34.6379 37.7814 33.6175 37.7814 32.3588V24.5C37.7867 23.8921 37.5489 23.3074 37.1209 22.8757C36.6929 22.444 36.1102 22.2012 35.5024 22.2013H27.6435C26.374 22.2013 25.3448 23.2304 25.3448 24.5V32.3588C25.3448 32.9667 25.5876 33.5494 26.0193 33.9774C26.4509 34.4053 27.0357 34.6431 27.6435 34.6379H35.5024Z" fill="#0FC99F"/>
</svg>
