<svg width="20" height="21" viewBox="0 0 20 21" fill="none" xmlns="http://www.w3.org/2000/svg">
<path fill-rule="evenodd" clip-rule="evenodd" d="M16.75 6.55V2.7C16.7227 1.20078 15.4995 -0.000247751 14 3.83352e-08H6C4.50053 -0.000247751 3.27726 1.20078 3.25 2.7V3.15C1.34434 3.62617 0.00551041 5.33576 0 7.3V16.3C0.00549833 18.667 1.92298 20.5845 4.29 20.59H15.73C18.0892 20.5735 19.9946 18.6593 20 16.3V10.7C19.9945 8.73576 18.6557 7.02617 16.75 6.55ZM6 1.45H14C14.6904 1.45 15.25 2.00964 15.25 2.7V6.41H11.7C11.4736 6.41 11.29 6.22644 11.29 6C11.29 4.34315 9.94685 3 8.29 3H4.75V2.7C4.75 2.00964 5.30964 1.45 6 1.45ZM15.73 19.3C17.3869 19.3 18.73 17.9569 18.73 16.3L18.7 10.7C18.7 9.04315 17.3569 7.7 15.7 7.7H11.7C10.7611 7.7 10 6.93888 10 6C10.0001 5.54389 9.81685 5.10687 9.49152 4.78719C9.16619 4.4675 8.72604 4.29195 8.27 4.3H4.27C2.61315 4.3 1.27 5.64315 1.27 7.3V16.3C1.27 17.9569 2.61315 19.3 4.27 19.3H15.73Z" fill="white"/>
</svg>
