<svg width="12" height="12" viewBox="0 0 12 12" fill="none" xmlns="http://www.w3.org/2000/svg">
<path fill-rule="evenodd" clip-rule="evenodd" d="M3.0402 3.33336C2.34704 3.33917 1.65373 3.3379 0.960517 3.33405C0.764652 3.33288 0.667612 3.4005 0.66797 3.62343C0.672309 6.1092 0.670624 8.59497 0.671135 11.0807C0.671186 11.1753 0.656688 11.2793 0.773227 11.3224C0.777668 11.3376 3.22141 11.3366 3.228 11.3216C3.35664 11.2715 3.3307 11.1549 3.33075 11.0541C3.33188 8.58583 3.32989 6.11754 3.33463 3.64931C3.33499 3.42533 3.25832 3.33151 3.0402 3.33336Z" fill="#4B5563"/>
<path fill-rule="evenodd" clip-rule="evenodd" d="M2.00128 0C1.26495 0 0.667969 0.596977 0.667969 1.33331C0.667969 2.06974 1.26495 2.66667 2.00128 2.66667C2.73766 2.66667 3.33464 2.06974 3.33464 1.33331C3.33464 0.596977 2.73766 0 2.00128 0Z" fill="#4B5563"/>
<path fill-rule="evenodd" clip-rule="evenodd" d="M11.9667 10.9501C11.9683 9.67602 11.9748 8.40184 11.9644 7.12781C11.9599 6.56973 11.9399 6.0102 11.8226 5.46095C11.6303 4.56043 11.1977 3.85737 10.3382 3.52952C9.76483 3.31082 9.16538 3.29675 8.56663 3.38152C8.06365 3.45275 7.60031 3.64433 7.1782 4.00043C7.1782 3.87087 7.17775 3.78495 7.1783 3.69913C7.17959 3.50641 7.0899 3.41929 6.90513 3.42017C6.2485 3.42324 5.59187 3.42246 4.93519 3.42069C4.75443 3.42017 4.66772 3.49482 4.66797 3.69799C4.67144 6.14293 4.67015 8.58786 4.67025 11.0328C4.67025 11.1266 4.65791 11.2263 4.76642 11.2725C4.77787 11.2876 7.14852 11.2933 7.14842 11.2778C7.30391 11.208 7.25609 11.0606 7.25634 10.9406C7.25852 9.73472 7.25128 8.5288 7.25778 7.32293C7.25976 6.94584 7.27368 6.5649 7.43655 6.21378C7.62955 5.79773 8.02896 5.61747 8.59155 5.69124C8.97858 5.74194 9.22564 6.00402 9.30254 6.46059C9.33103 6.62926 9.35233 6.80173 9.35332 6.97259C9.36086 8.29903 9.3619 9.62547 9.3674 10.9519C9.36794 11.0744 9.33118 11.219 9.48894 11.2806C9.48354 11.298 11.8705 11.2874 11.8712 11.2706C11.9996 11.1957 11.9666 11.0651 11.9667 10.9501Z" fill="#4B5563"/>
</svg>
