<svg width="14" height="12" viewBox="0 0 14 12" fill="none" xmlns="http://www.w3.org/2000/svg">
<path fill-rule="evenodd" clip-rule="evenodd" d="M10.9987 0.666748H2.9987C1.52594 0.666748 0.332031 1.86066 0.332031 3.33341V9.33341C0.332031 10.8062 1.52594 12.0001 2.9987 12.0001H10.9987C12.4715 12.0001 13.6654 10.8062 13.6654 9.33341V3.33341C13.6654 1.86066 12.4715 0.666748 10.9987 0.666748ZM2.9987 1.72675H10.9987C11.7092 1.72811 12.3337 2.19783 12.532 2.88008L7.50536 6.60675C7.3676 6.74144 7.18082 6.81405 6.98825 6.80776C6.79569 6.80146 6.61404 6.71682 6.48537 6.57341L1.4787 2.88675C1.6732 2.20657 2.2913 1.73486 2.9987 1.72675ZM1.39203 9.33341C1.39203 10.2208 2.11136 10.9401 2.9987 10.9401H10.9987C11.8834 10.9364 12.5987 10.2182 12.5987 9.33341V3.98008L8.06537 7.31341C7.77564 7.58314 7.39455 7.7332 6.9987 7.73341C6.58719 7.72686 6.1928 7.56767 5.89203 7.28675L1.39203 3.95341V9.33341Z" fill="#4B5563"/>
</svg>
