<svg width="41" height="28" viewBox="0 0 41 28" fill="none" xmlns="http://www.w3.org/2000/svg">
<path d="M20.6165 12.2819C23.6869 12.2823 26.1903 9.82054 26.2415 6.75061V4.65061C26.2417 3.40424 25.7415 2.20999 24.8531 1.33576C23.9648 0.461524 22.7627 -0.0194969 21.5165 0.000605688H19.7353C17.1745 0.0109316 15.104 2.08979 15.104 4.65061V6.75061C15.1539 9.77728 17.59 12.2217 20.6165 12.2819Z" fill="#0FC99F"/>
<path d="M40.4915 21.9569L40.2665 19.1256C40.0233 17.7037 38.8026 16.6563 37.3603 16.6319H29.2603C29.136 16.6125 29.0095 16.6125 28.8853 16.6319C28.1666 15.8247 27.1347 15.3668 26.054 15.3756H15.1978C14.0533 15.3706 12.9693 15.8885 12.254 16.7819C11.9476 16.6698 11.6239 16.6127 11.2978 16.6131H3.19775C1.74948 16.6392 0.526651 17.6963 0.291503 19.1256L0.0665029 22.0506C-0.12192 22.9476 0.0945939 23.882 0.65831 24.6047C1.22203 25.3275 2.07563 25.765 2.9915 25.8006H11.5228C11.6909 25.82 11.8608 25.82 12.029 25.8006C12.7727 26.6214 13.8277 27.0911 14.9353 27.0944H26.3165C27.3904 27.0892 28.4146 26.6416 29.1478 25.8569H37.5665C38.5156 25.8306 39.4009 25.3726 39.9706 24.613C40.5403 23.8534 40.7321 22.8754 40.4915 21.9569Z" fill="#0FC99F"/>
<path d="M33.404 13.7069C35.6822 13.7069 37.529 11.86 37.529 9.58186V7.98811C37.5293 7.05166 37.151 6.15486 36.4801 5.50158C35.8092 4.8483 34.9026 4.49405 33.9665 4.51936H32.654C30.7383 4.51936 29.1853 6.07237 29.1853 7.98811V9.58186C29.185 10.6923 29.6324 11.756 30.4264 12.5323C31.2204 13.3087 32.2938 13.7321 33.404 13.7069Z" fill="#0FC99F"/>
<path d="M7.24776 13.7069C9.52593 13.7069 11.3728 11.86 11.3728 9.58186V7.98811C11.3728 6.07237 9.81974 4.51936 7.90401 4.51936H6.59151C4.67577 4.51936 3.12276 6.07237 3.12276 7.98811V9.58186C3.12276 11.86 4.96958 13.7069 7.24776 13.7069Z" fill="#0FC99F"/>
</svg>
