<svg width="22" height="16" viewBox="0 0 22 16" fill="none" xmlns="http://www.w3.org/2000/svg">
<path d="M20.7201 7.25H19.0501V5.58C19.0501 5.16579 18.7143 4.83 18.3001 4.83C17.8859 4.83 17.5501 5.16579 17.5501 5.58V7.25H15.8801C15.4659 7.25 15.1301 7.58579 15.1301 8C15.1301 8.41422 15.4659 8.75 15.8801 8.75H17.5501V10.42C17.5501 10.8342 17.8859 11.17 18.3001 11.17C18.7143 11.17 19.0501 10.8342 19.0501 10.42V8.75H20.7201C21.1343 8.75 21.4701 8.41422 21.4701 8C21.4701 7.58579 21.1343 7.25 20.7201 7.25Z" fill="#FAFBFC"/>
<path fill-rule="evenodd" clip-rule="evenodd" d="M11.1801 0.550001C11.5128 0.32206 11.9067 0.200055 12.3101 0.200001C12.8544 0.189001 13.3797 0.400395 13.7647 0.78538C14.1497 1.17036 14.3611 1.69566 14.3501 2.24V13.68C14.3763 14.443 13.9659 15.1545 13.2921 15.5137C12.6184 15.8728 11.799 15.8171 11.1801 15.37L5.30007 11.45C4.96412 11.23 4.57166 11.1119 4.17007 11.11H2.57007C1.4655 11.11 0.570068 10.2146 0.570068 9.11V6.81C0.570068 5.70543 1.4655 4.81 2.57007 4.81H4.17007C4.57166 4.80813 4.96412 4.69005 5.30007 4.47L11.1801 0.550001ZM12.3101 14.3C12.6083 14.3 12.8501 14.0582 12.8501 13.76L12.8401 2.24C12.8401 2.09678 12.7832 1.95943 12.6819 1.85816C12.5806 1.75689 12.4433 1.7 12.3001 1.7C12.1935 1.70029 12.0892 1.73156 12.0001 1.79L6.14007 5.72C5.54672 6.11077 4.85052 6.31615 4.14007 6.31H2.54007C2.24184 6.31 2.00007 6.55177 2.00007 6.85V9.15C1.99984 9.29857 2.06084 9.44067 2.16869 9.54285C2.27655 9.64503 2.42173 9.69826 2.57007 9.69H4.13007C4.84052 9.68386 5.53672 9.88924 6.13007 10.28L12.0101 14.21C12.0992 14.2684 12.2035 14.2997 12.3101 14.3Z" fill="#FAFBFC"/>
</svg>
