<svg width="40" height="40" viewBox="0 0 40 40" fill="none" xmlns="http://www.w3.org/2000/svg">
<path d="M20.2 40C19.6333 40 19.1587 39.7867 18.776 39.36C18.392 38.9348 18.2 38.4074 18.2 37.7778C18.2 37.5185 18.25 37.2496 18.35 36.9711C18.45 36.6941 18.6 36.4444 18.8 36.2222L28.05 25.9444L26.6 24.3333L17.4 34.6111C17.2 34.8333 16.9833 35 16.75 35.1111C16.5167 35.2222 16.2667 35.2778 16 35.2778C15.4333 35.2778 14.9587 35.0644 14.576 34.6378C14.192 34.2126 14 33.6852 14 33.0556C14 32.6852 14.05 32.3793 14.15 32.1378C14.25 31.8978 14.3833 31.6852 14.55 31.5L23.8 21.2222L22.4 19.6667L13.15 29.8889C12.95 30.1111 12.7333 30.2778 12.5 30.3889C12.2667 30.5 12 30.5556 11.7 30.5556C11.1667 30.5556 10.7 30.3333 10.3 29.8889C9.9 29.4444 9.7 28.9259 9.7 28.3333C9.7 28.037 9.75 27.7593 9.85 27.5C9.95 27.2407 10.1 27 10.3 26.7778L19.55 16.5L18.1 14.9444L8.9 25.2222C8.73333 25.4074 8.53333 25.5556 8.3 25.6667C8.06667 25.7778 7.78333 25.8333 7.45 25.8333C6.88333 25.8333 6.40867 25.62 6.026 25.1933C5.642 24.7681 5.45 24.2407 5.45 23.6111C5.45 23.3148 5.5 23.037 5.6 22.7778C5.7 22.5185 5.85 22.2778 6.05 22.0556L17.2 9.66667L24.7 18.0556C25.0667 18.463 25.5 18.7867 26 19.0267C26.5 19.2682 27 19.3889 27.5 19.3889C28.5667 19.3889 29.5 18.9719 30.3 18.1378C31.1 17.3052 31.5 16.2407 31.5 14.9444C31.5 14.4259 31.4167 13.8889 31.25 13.3333C31.0833 12.7778 30.7833 12.2593 30.35 11.7778L21.4 1.83333C21.9667 1.24074 22.6 0.786666 23.3 0.471111C24 0.157037 24.7 0 25.4 0C26.2667 0 27.0667 0.157037 27.8 0.471111C28.5333 0.786666 29.2 1.27778 29.8 1.94444L38.25 11.3889C38.85 12.0556 39.292 12.7963 39.576 13.6111C39.8587 14.4259 40 15.3704 40 16.4444C40 17.1852 39.85 17.9348 39.55 18.6933C39.25 19.4533 38.8167 20.1481 38.25 20.7778L21.6 39.3333C21.3333 39.6296 21.1 39.8148 20.9 39.8889C20.7 39.963 20.4667 40 20.2 40ZM3.05 22.2222L1.75 20.7778C1.18333 20.1852 0.75 19.4815 0.45 18.6667C0.15 17.8519 0 17 0 16.1111C0 15.1481 0.166667 14.2593 0.5 13.4444C0.833333 12.6296 1.25 11.9444 1.75 11.3889L10.2 1.94444C10.7333 1.35185 11.3667 0.879259 12.1 0.526667C12.8333 0.175556 13.55 0 14.25 0C15.15 0 15.95 0.139259 16.65 0.417778C17.35 0.694815 18.0333 1.2037 18.7 1.94444L28.95 13.3333C29.15 13.5556 29.3 13.7963 29.4 14.0556C29.5 14.3148 29.55 14.5926 29.55 14.8889C29.55 15.4815 29.35 16 28.95 16.4444C28.55 16.8889 28.0833 17.1111 27.55 17.1111C27.25 17.1111 27 17.0644 26.8 16.9711C26.6 16.8793 26.3833 16.7037 26.15 16.4444L17.15 6.55556L3.05 22.2222Z" fill="#0FC99F"/>
</svg>
